<?xml version="1.0" encoding="utf-8" ?>
<svg baseProfile="full" height="500px" version="1.1" width="500px" xmlns="http://www.w3.org/2000/svg" xmlns:ev="http://www.w3.org/2001/xml-events" xmlns:xlink="http://www.w3.org/1999/xlink"><defs><clipPath id="border_clip"><rect height="500" width="500" x="0" y="0" /></clipPath></defs><polyline clip-path="url(#border_clip)" fill="none" points="50.5,50.5 50.5,50.5" stroke="#8d563e" stroke-linecap="round" stroke-width="20" /><polyline clip-path="url(#border_clip)" fill="none" points="100.5,50.5 100.5,50.5" stroke="#166454" stroke-linecap="round" stroke-width="20" /><polyline clip-path="url(#border_clip)" fill="none" points="150.5,50.5 150.5,50.5" stroke="#78b094" stroke-linecap="round" stroke-width="20" /><polyline clip-path="url(#border_clip)" fill="none" points="200.5,50.5 200.5,50.5" stroke="#373c5e" stroke-linecap="round" stroke-width="20" /><polyline clip-path="url(#border_clip)" fill="none" points="250.5,50.5 250.5,50.5" stroke="#93cfde" stroke-linecap="round" stroke-width="20" /><polyline clip-path="url(#border_clip)" fill="none" points="300.5,50.5 300.5,50.5" stroke="#373c5e" stroke-linecap="round" stroke-width="20" /><polyline clip-path="url(#border_clip)" fill="none" points="350.5,50.5 350.5,50.5" stroke="#84abc4" stroke-linecap="round" stroke-width="20" /><polyline clip-path="url(#border_clip)" fill="none" points="400.5,50.5 400.5,50.5" stroke="#78b094" stroke-linecap="round" stroke-width="20" /><polyline clip-path="url(#border_clip)" fill="none" points="450.5,50.5 450.5,50.5" stroke="#93cfde" stroke-linecap="round" stroke-width="20" /><polyline clip-path="url(#border_clip)" fill="none" points="50.5,100.5 50.5,100.5" stroke="#d88395" stroke-linecap="round" stroke-width="20" /><polyline clip-path="url(#border_clip)" fill="none" points="100.5,100.5 100.5,100.5" stroke="#f2d062" stroke-linecap="round" stroke-width="20" /><polyline clip-path="url(#border_clip)" fill="none" points="150.5,100.5 150.5,100.5" stroke="#14a779" stroke-linecap="round" stroke-width="20" /><polyline clip-path="url(#border_clip)" fill="none" points="200.5,100.5 200.5,100.5" stroke="#93cfde" stroke-linecap="round" stroke-width="20" /><polyline clip-path="url(#border_clip)" fill="none" points="250.5,100.5 250.5,100.5" stroke="#eca2ae" stroke-linecap="round" stroke-width="20" /><polyline clip-path="url(#border_clip)" fill="none" points="300.5,100.5 300.5,100.5" stroke="#84abc4" stroke-linecap="round" stroke-width="20" /><polyline clip-path="url(#border_clip)" fill="none" points="350.5,100.5 350.5,100.5" stroke="#f0a79a" stroke-linecap="round" stroke-width="20" /><polyline clip-path="url(#border_clip)" fill="none" points="400.5,100.5 400.5,100.5" stroke="#f2d062" stroke-linecap="round" stroke-width="20" /><polyline clip-path="url(#border_clip)" fill="none" points="450.5,100.5 450.5,100.5" stroke="#6177ac" stroke-linecap="round" stroke-width="20" /><polyline clip-path="url(#border_clip)" fill="none" points="50.5,150.5 50.5,150.5" stroke="#7d5669" stroke-linecap="round" stroke-width="20" /><polyline clip-path="url(#border_clip)" fill="none" points="100.5,150.5 100.5,150.5" stroke="#373c5e" stroke-linecap="round" stroke-width="20" /><polyline clip-path="url(#border_clip)" fill="none" points="150.5,150.5 150.5,150.5" stroke="#257752" stroke-linecap="round" stroke-width="20" /><polyline clip-path="url(#border_clip)" fill="none" points="200.5,150.5 200.5,150.5" stroke="#303f4b" stroke-linecap="round" stroke-width="20" /><polyline clip-path="url(#border_clip)" fill="none" points="250.5,150.5 250.5,150.5" stroke="#f0a79a" stroke-linecap="round" stroke-width="20" /><polyline clip-path="url(#border_clip)" fill="none" points="300.5,150.5 300.5,150.5" stroke="#14a4cc" stroke-linecap="round" stroke-width="20" /><polyline clip-path="url(#border_clip)" fill="none" points="350.5,150.5 350.5,150.5" stroke="#dc996a" stroke-linecap="round" stroke-width="20" /><polyline clip-path="url(#border_clip)" fill="none" points="400.5,150.5 400.5,150.5" stroke="#f0a79a" stroke-linecap="round" stroke-width="20" /><polyline clip-path="url(#border_clip)" fill="none" points="450.5,150.5 450.5,150.5" stroke="#14a4cc" stroke-linecap="round" stroke-width="20" /><polyline clip-path="url(#border_clip)" fill="none" points="50.5,200.5 50.5,200.5" stroke="#f0a79a" stroke-linecap="round" stroke-width="20" /><polyline clip-path="url(#border_clip)" fill="none" points="100.5,200.5 100.5,200.5" stroke="#257752" stroke-linecap="round" stroke-width="20" /><polyline clip-path="url(#border_clip)" fill="none" points="150.5,200.5 150.5,200.5" stroke="#84abc4" stroke-linecap="round" stroke-width="20" /><polyline clip-path="url(#border_clip)" fill="none" points="200.5,200.5 200.5,200.5" stroke="#a2d1a7" stroke-linecap="round" stroke-width="20" /><polyline clip-path="url(#border_clip)" fill="none" points="250.5,200.5 250.5,200.5" stroke="#166454" stroke-linecap="round" stroke-width="20" /><polyline clip-path="url(#border_clip)" fill="none" points="300.5,200.5 300.5,200.5" stroke="#7d5669" stroke-linecap="round" stroke-width="20" /><polyline clip-path="url(#border_clip)" fill="none" points="350.5,200.5 350.5,200.5" stroke="#af9b4a" stroke-linecap="round" stroke-width="20" /><polyline clip-path="url(#border_clip)" fill="none" points="400.5,200.5 400.5,200.5" stroke="#166454" stroke-linecap="round" stroke-width="20" /><polyline clip-path="url(#border_clip)" fill="none" points="450.5,200.5 450.5,200.5" stroke="#303f4b" stroke-linecap="round" stroke-width="20" /><polyline clip-path="url(#border_clip)" fill="none" points="50.5,250.5 50.5,250.5" stroke="#14a4cc" stroke-linecap="round" stroke-width="20" /><polyline clip-path="url(#border_clip)" fill="none" points="100.5,250.5 100.5,250.5" stroke="#78b094" stroke-linecap="round" stroke-width="20" /><polyline clip-path="url(#border_clip)" fill="none" points="150.5,250.5 150.5,250.5" stroke="#f2d062" stroke-linecap="round" stroke-width="20" /><polyline clip-path="url(#border_clip)" fill="none" points="200.5,250.5 200.5,250.5" stroke="#dc996a" stroke-linecap="round" stroke-width="20" /><polyline clip-path="url(#border_clip)" fill="none" points="250.5,250.5 250.5,250.5" stroke="#dd4858" stroke-linecap="round" stroke-width="20" /><polyline clip-path="url(#border_clip)" fill="none" points="300.5,250.5 300.5,250.5" stroke="#dd524c" stroke-linecap="round" stroke-width="20" /><polyline clip-path="url(#border_clip)" fill="none" points="350.5,250.5 350.5,250.5" stroke="#a2d1a7" stroke-linecap="round" stroke-width="20" /><polyline clip-path="url(#border_clip)" fill="none" points="400.5,250.5 400.5,250.5" stroke="#dd4858" stroke-linecap="round" stroke-width="20" /><polyline clip-path="url(#border_clip)" fill="none" points="450.5,250.5 450.5,250.5" stroke="#177799" stroke-linecap="round" stroke-width="20" /><polyline clip-path="url(#border_clip)" fill="none" points="50.5,300.5 50.5,300.5" stroke="#257752" stroke-linecap="round" stroke-width="20" /><polyline clip-path="url(#border_clip)" fill="none" points="100.5,300.5 100.5,300.5" stroke="#d88395" stroke-linecap="round" stroke-width="20" /><polyline clip-path="url(#border_clip)" fill="none" points="150.5,300.5 150.5,300.5" stroke="#14a4cc" stroke-linecap="round" stroke-width="20" /><polyline clip-path="url(#border_clip)" fill="none" points="200.5,300.5 200.5,300.5" stroke="#78b094" stroke-linecap="round" stroke-width="20" /><polyline clip-path="url(#border_clip)" fill="none" points="250.5,300.5 250.5,300.5" stroke="#a2d1a7" stroke-linecap="round" stroke-width="20" /><polyline clip-path="url(#border_clip)" fill="none" points="300.5,300.5 300.5,300.5" stroke="#177799" stroke-linecap="round" stroke-width="20" /><polyline clip-path="url(#border_clip)" fill="none" points="350.5,300.5 350.5,300.5" stroke="#373c5e" stroke-linecap="round" stroke-width="20" /><polyline clip-path="url(#border_clip)" fill="none" points="400.5,300.5 400.5,300.5" stroke="#036175" stroke-linecap="round" stroke-width="20" /><polyline clip-path="url(#border_clip)" fill="none" points="450.5,300.5 450.5,300.5" stroke="#aeb8d8" stroke-linecap="round" stroke-width="20" /><polyline clip-path="url(#border_clip)" fill="none" points="50.5,350.5 50.5,350.5" stroke="#93cfde" stroke-linecap="round" stroke-width="20" /><polyline clip-path="url(#border_clip)" fill="none" points="100.5,350.5 100.5,350.5" stroke="#dd524c" stroke-linecap="round" stroke-width="20" /><polyline clip-path="url(#border_clip)" fill="none" points="150.5,350.5 150.5,350.5" stroke="#373c5e" stroke-linecap="round" stroke-width="20" /><polyline clip-path="url(#border_clip)" fill="none" points="200.5,350.5 200.5,350.5" stroke="#f2d062" stroke-linecap="round" stroke-width="20" /><polyline clip-path="url(#border_clip)" fill="none" points="250.5,350.5 250.5,350.5" stroke="#93cfde" stroke-linecap="round" stroke-width="20" /><polyline clip-path="url(#border_clip)" fill="none" points="300.5,350.5 300.5,350.5" stroke="#eca2ae" stroke-linecap="round" stroke-width="20" /><polyline clip-path="url(#border_clip)" fill="none" points="350.5,350.5 350.5,350.5" stroke="#7d5669" stroke-linecap="round" stroke-width="20" /><polyline clip-path="url(#border_clip)" fill="none" points="400.5,350.5 400.5,350.5" stroke="#84abc4" stroke-linecap="round" stroke-width="20" /><polyline clip-path="url(#border_clip)" fill="none" points="450.5,350.5 450.5,350.5" stroke="#8d563e" stroke-linecap="round" stroke-width="20" /><polyline clip-path="url(#border_clip)" fill="none" points="50.5,400.5 50.5,400.5" stroke="#d88395" stroke-linecap="round" stroke-width="20" /><polyline clip-path="url(#border_clip)" fill="none" points="100.5,400.5 100.5,400.5" stroke="#93cfde" stroke-linecap="round" stroke-width="20" /><polyline clip-path="url(#border_clip)" fill="none" points="150.5,400.5 150.5,400.5" stroke="#303f4b" stroke-linecap="round" stroke-width="20" /><polyline clip-path="url(#border_clip)" fill="none" points="200.5,400.5 200.5,400.5" stroke="#d88395" stroke-linecap="round" stroke-width="20" /><polyline clip-path="url(#border_clip)" fill="none" points="250.5,400.5 250.5,400.5" stroke="#257752" stroke-linecap="round" stroke-width="20" /><polyline clip-path="url(#border_clip)" fill="none" points="300.5,400.5 300.5,400.5" stroke="#7d5669" stroke-linecap="round" stroke-width="20" /><polyline clip-path="url(#border_clip)" fill="none" points="350.5,400.5 350.5,400.5" stroke="#78b094" stroke-linecap="round" stroke-width="20" /><polyline clip-path="url(#border_clip)" fill="none" points="400.5,400.5 400.5,400.5" stroke="#a2d1a7" stroke-linecap="round" stroke-width="20" /><polyline clip-path="url(#border_clip)" fill="none" points="450.5,400.5 450.5,400.5" stroke="#a2d1a7" stroke-linecap="round" stroke-width="20" /><polyline clip-path="url(#border_clip)" fill="none" points="50.5,450.5 50.5,450.5" stroke="#177799" stroke-linecap="round" stroke-width="20" /><polyline clip-path="url(#border_clip)" fill="none" points="100.5,450.5 100.5,450.5" stroke="#dd4858" stroke-linecap="round" stroke-width="20" /><polyline clip-path="url(#border_clip)" fill="none" points="150.5,450.5 150.5,450.5" stroke="#a2d1a7" stroke-linecap="round" stroke-width="20" /><polyline clip-path="url(#border_clip)" fill="none" points="200.5,450.5 200.5,450.5" stroke="#177799" stroke-linecap="round" stroke-width="20" /><polyline clip-path="url(#border_clip)" fill="none" points="250.5,450.5 250.5,450.5" stroke="#eca2ae" stroke-linecap="round" stroke-width="20" /><polyline clip-path="url(#border_clip)" fill="none" points="300.5,450.5 300.5,450.5" stroke="#177799" stroke-linecap="round" stroke-width="20" /><polyline clip-path="url(#border_clip)" fill="none" points="350.5,450.5 350.5,450.5" stroke="#78b094" stroke-linecap="round" stroke-width="20" /><polyline clip-path="url(#border_clip)" fill="none" points="400.5,450.5 400.5,450.5" stroke="#dd4858" stroke-linecap="round" stroke-width="20" /><polyline clip-path="url(#border_clip)" fill="none" points="450.5,450.5 450.5,450.5" stroke="#177799" stroke-linecap="round" stroke-width="20" /></svg>